#N canvas 831 391 690 531 10;
#X obj 102 48 inlet~;
#X obj 137 513 outlet~;
#X obj 272 42 inlet;
#X obj 273 70 route sinusoidal random;
#X msg 329 46 sinusoidal;
#X obj 244 103 t b;
#X obj 348 98 t b;
#X obj 349 146 metro 60000;
#X msg 368 122 1;
#X obj 429 110 unpack f f;
#X obj 349 171 random 1000;
#X obj 348 199 expr if($f1 < $f2 \, 1 \, 0);
#X obj 350 218 route 0 1;
#X obj 379 246 t b;
#X obj 379 271 i;
#X obj 407 271 + 1;
#X obj 378 295 mod 2;
#X obj 378 317 route 0 1;
#X obj 407 345 t b;
#X obj 375 345 t b;
#X obj 136 491 *~;
#X obj 333 400 vline~;
#X msg 313 368 1;
#X obj 311 344 loadbang;
#X msg 353 370 0 5000;
#X msg 256 125 0;
#X obj 294 168 osc~;
#X obj 221 221 snapshot~;
#X msg 216 128 1;
#X msg 327 124 0;
#X msg 415 371 1 5000;
#X obj 198 370 vline~;
#X obj 202 340 pack f f;
#X msg 255 309 10;
#X obj 237 287 t b;
#X obj 205 285 + 1;
#X obj 205 307 / 2;
#X obj 220 198 metro 10;
#X obj 499 148 * 1000;
#X floatatom 453 315 5 0 0 0 - - -, f 5;
#X obj 444 274 expr if($f1 > 1000 \, 0 \, $f1);
#X obj 267 451 *~;
#X msg 289 424 0;
#X msg 284 404 1;
#X obj 197 451 *~;
#X msg 219 424 0;
#X msg 214 404 1;
#X connect 0 0 20 0;
#X connect 2 0 3 0;
#X connect 3 0 5 0;
#X connect 3 0 26 0;
#X connect 3 1 6 0;
#X connect 3 1 9 0;
#X connect 4 0 3 0;
#X connect 5 0 25 0;
#X connect 5 0 28 0;
#X connect 5 0 42 0;
#X connect 5 0 46 0;
#X connect 6 0 8 0;
#X connect 6 0 29 0;
#X connect 6 0 43 0;
#X connect 6 0 45 0;
#X connect 7 0 10 0;
#X connect 8 0 7 0;
#X connect 9 0 7 1;
#X connect 9 1 38 0;
#X connect 10 0 11 0;
#X connect 11 0 12 0;
#X connect 12 1 13 0;
#X connect 13 0 14 0;
#X connect 14 0 15 0;
#X connect 14 0 16 0;
#X connect 14 0 40 0;
#X connect 15 0 14 1;
#X connect 16 0 17 0;
#X connect 16 0 39 0;
#X connect 17 0 19 0;
#X connect 17 1 18 0;
#X connect 18 0 30 0;
#X connect 19 0 24 0;
#X connect 20 0 1 0;
#X connect 21 0 41 0;
#X connect 22 0 21 0;
#X connect 23 0 22 0;
#X connect 24 0 21 0;
#X connect 25 0 7 0;
#X connect 26 0 27 0;
#X connect 27 0 34 0;
#X connect 27 0 35 0;
#X connect 28 0 37 0;
#X connect 29 0 37 0;
#X connect 30 0 21 0;
#X connect 31 0 44 0;
#X connect 32 0 31 0;
#X connect 33 0 32 1;
#X connect 34 0 33 0;
#X connect 35 0 36 0;
#X connect 36 0 32 0;
#X connect 37 0 27 0;
#X connect 38 0 11 1;
#X connect 40 0 14 1;
#X connect 41 0 20 1;
#X connect 42 0 41 1;
#X connect 43 0 41 1;
#X connect 44 0 20 1;
#X connect 45 0 44 1;
#X connect 46 0 44 1;
