#N canvas 0 22 1680 878 10;
#X obj 397 449 tgl 15 0 empty empty empty 17 7 0 10 -262144 -1 -1 1
1;
#X obj 1051 195 *~;
#X obj 1366 209 *~;
#X obj 397 490 s \$0-clock;
#X obj 1148 216 r \$0-clock;
#X obj 1486 207 r \$0-clock;
#X obj 1403 170 vlineMessagePacker;
#X obj 1072 154 vlineMessagePacker;
#X obj 1066 175 vline~;
#X obj 1401 189 vline~;
#X obj 451 373 snapshot~;
#X obj 494 335 tgl 15 0 empty empty empty 17 7 0 10 -262144 -1 -1 1
1;
#X obj 491 353 metro 15;
#X obj 450 397 + 1;
#X obj 478 470 s \$0-scalecap;
#X obj 1699 203 *~;
#X obj 165 710 *~;
#X obj 1808 225 r \$0-clock;
#X obj 265 729 r \$0-clock;
#X obj 182 670 vlineMessagePacker;
#X obj 1729 161 vlineMessagePacker;
#X obj 1714 183 vline~;
#X obj 180 690 vline~;
#X obj 488 729 *~;
#X obj 588 747 r \$0-clock;
#X obj 505 689 vlineMessagePacker;
#X obj 503 709 vline~;
#X obj 792 709 *~;
#X obj 1143 716 *~;
#X obj 888 729 r \$0-clock;
#X obj 1244 695 r \$0-clock;
#X obj 879 601 r \$0-clock;
#X obj 1160 675 vlineMessagePacker;
#X obj 849 663 vlineMessagePacker;
#X obj 831 684 vline~;
#X obj 1158 696 vline~;
#X obj 892 621 r \$0-scalecap;
#X obj 1498 704 *~;
#X obj 1603 717 r \$0-clock;
#X obj 1515 659 vlineMessagePacker;
#X obj 1513 681 vline~;
#X obj 1192 611 r \$0-clock;
#X obj 1213 630 r \$0-scalecap;
#X obj 1179 654 randomEnvelope;
#X obj 1540 594 r \$0-clock;
#X obj 1570 616 r \$0-scalecap;
#X obj 1099 91 r \$0-clock;
#X obj 1141 112 r \$0-scalecap;
#X obj 1429 113 r \$0-clock;
#X obj 1455 131 r \$0-scalecap;
#X obj 1753 101 r \$0-clock;
#X obj 1779 120 r \$0-scalecap;
#X obj 206 612 r \$0-clock;
#X obj 237 630 r \$0-scalecap;
#X obj 527 630 r \$0-clock;
#X obj 564 649 r \$0-scalecap;
#X obj 817 749 vline~;
#X msg 817 711 0 10;
#X msg 831 728 0.1 10;
#X obj 805 771 *~;
#X obj 1171 755 vline~;
#X msg 1171 717 0 10;
#X msg 1185 734 0.1 10;
#X obj 1161 777 *~;
#X obj 1530 741 vline~;
#X msg 1530 703 0 10;
#X msg 1544 720 0.1 10;
#X obj 1516 760 *~;
#X obj 1078 234 vline~;
#X msg 1078 196 0 10;
#X msg 1100 213 0.1 10;
#X obj 1069 256 *~;
#X obj 1412 248 vline~;
#X msg 1412 210 0 10;
#X msg 1425 227 0.1 10;
#X obj 1406 271 *~;
#X obj 1737 245 vline~;
#X msg 1737 207 0 10;
#X msg 1751 224 0.1 10;
#X obj 194 749 vline~;
#X msg 194 711 0 10;
#X msg 208 728 0.1 10;
#X obj 183 771 *~;
#X obj 1729 267 *~;
#X obj 516 769 vline~;
#X msg 516 731 0 10;
#X msg 530 748 0.1 10;
#X obj 506 790 *~;
#X obj 1148 236 random 8;
#X obj 1148 257 + 1;
#X obj 1486 247 random 8;
#X obj 1486 268 + 1;
#X obj 1808 245 random 8;
#X obj 1808 267 + 1;
#X obj 265 749 random 8;
#X obj 265 769 + 1;
#X obj 588 767 random 8;
#X obj 588 788 + 1;
#X obj 1598 737 random 8;
#X obj 1598 758 + 1;
#X obj 1243 754 random 8;
#X obj 1243 775 + 1;
#X obj 888 751 random 8;
#X obj 888 771 + 1;
#X msg 1405 649 sine;
#X msg 1070 666 sine;
#X msg 747 662 sine;
#X msg 411 688 sine;
#X msg 88 669 sine;
#X msg 1621 162 sine;
#X msg 1309 160 sine;
#X msg 982 154 sine;
#X msg 949 129 pink;
#X msg 1280 136 pink;
#X msg 55 649 pink;
#X msg 1581 140 pink;
#X msg 380 668 pink;
#X msg 1035 645 pink;
#X msg 715 641 pink;
#X msg 1375 629 pink;
#X obj 1068 280 eightPanner;
#X obj 1406 291 eightPanner;
#X obj 1728 290 eightPanner;
#X obj 185 792 eightPanner;
#X obj 504 811 eightPanner;
#X obj 808 794 eightPanner;
#X obj 1162 799 eightPanner;
#X obj 1518 781 eightPanner;
#X msg 964 108 both;
#X msg 1291 114 both;
#X msg 1593 118 both;
#X msg 64 629 both;
#X msg 393 646 both;
#X msg 725 622 both;
#X msg 1047 624 both;
#X msg 1385 607 both;
#X msg 1480 623 1266 1;
#X msg 1112 671 1127 1;
#X msg 478 652 935 1;
#X msg 1682 134 799 1;
#X msg 1377 135 703 1;
#X msg 1041 116 657 1;
#X obj 455 443 + 1;
#X obj 255 68 r \$0-scalecap;
#X obj 117 458 s \$0-allWaveChange;
#X obj 924 46 r \$0-allWaveChange;
#X obj 1273 54 r \$0-allWaveChange;
#X obj 1556 55 r \$0-allWaveChange;
#X obj 36 568 r \$0-allWaveChange;
#X obj 362 563 r \$0-allWaveChange;
#X obj 675 556 r \$0-allWaveChange;
#X obj 1002 558 r \$0-allWaveChange;
#X obj 1353 542 r \$0-allWaveChange;
#X msg 146 428 2;
#X msg 117 428 1;
#X msg 87 428 0;
#X obj 1289 73 r \$0-twoWaveChange;
#X obj 1565 76 r \$0-threeWaveChange;
#X obj 45 588 r \$0-fourWaveChange;
#X obj 370 587 r \$0-fiveWaveChange;
#X obj 684 576 r \$0-sixWaveChange;
#X obj 1361 562 r \$0-eightWaveChange;
#X obj 1013 577 r \$0-sevenWaveChange;
#X obj 951 65 r \$0-oneWaveChange;
#X msg 1623 138 off;
#X msg 1317 137 off;
#X msg 990 130 off;
#X msg 102 639 off;
#X msg 423 666 off;
#X msg 757 643 off;
#X msg 1080 647 off;
#X msg 1419 625 off;
#X obj 200 138 route 0 1 2 3 4 5 6 7;
#X obj 200 160 s \$0-oneWaveChange;
#X obj 210 180 s \$0-twoWaveChange;
#X obj 220 199 s \$0-threeWaveChange;
#X obj 231 220 s \$0-fourWaveChange;
#X obj 240 240 s \$0-fiveWaveChange;
#X obj 250 260 s \$0-sixWaveChange;
#X obj 260 280 s \$0-sevenWaveChange;
#X obj 271 300 s \$0-eightWaveChange;
#N canvas 940 216 382 374 randomWave 0;
#X obj 137 324 outlet;
#X obj 86 30 inlet;
#X obj 86 130 random 100;
#X obj 83 176 moses 0.5;
#X obj 135 219 random 8;
#X obj 134 198 t b;
#X obj 86 153 expr if($f1 < 33 \, 1 \, 0);
#X obj 135 280 pack f f;
#X obj 151 240 t b;
#X obj 170 260 random 3;
#X obj 289 32 inlet;
#X obj 86 57 expr if($f1 < 37 \, 1 \, 0);
#X obj 91 84 cyclone/speedlim 250;
#X floatatom 46 152 5 0 0 0 - - -, f 5;
#X obj 86 108 metro 100;
#X connect 1 0 11 0;
#X connect 2 0 6 0;
#X connect 2 0 13 0;
#X connect 3 1 5 0;
#X connect 4 0 7 0;
#X connect 4 0 8 0;
#X connect 5 0 4 0;
#X connect 6 0 3 0;
#X connect 7 0 0 0;
#X connect 8 0 9 0;
#X connect 9 0 7 1;
#X connect 10 0 12 1;
#X connect 10 0 14 1;
#X connect 11 0 12 0;
#X connect 12 0 14 0;
#X connect 14 0 2 0;
#X restore 255 91 pd randomWave;
#X msg 154 631 850 1;
#X obj 397 468 metro 2000;
#X obj 447 87 expr if($f1 < 4 \, 1 \, 0);
#X obj 442 193 moses 0.5;
#X obj 493 214 t b;
#X msg 476 296 0;
#X msg 506 313 1;
#X obj 447 65 r \$0-scalecap;
#X obj 447 150 random 1000;
#X obj 506 292 delay 50000;
#X obj 445 170 expr if($f1 < 25 \, 1 \, 0);
#X obj 447 129 metro 500;
#X obj 66 199 tgl 15 0 empty empty empty 17 7 0 10 -262144 -1 -1 1
1;
#X obj 156 396 route 0 1 2;
#X obj 868 642 randomEnvelope;
#X obj 1532 637 randomEnvelope;
#X obj 1094 132 randomEnvelope;
#X obj 1421 150 randomEnvelope;
#X obj 1750 140 randomEnvelope;
#X obj 203 650 randomEnvelope;
#X obj 524 669 randomEnvelope;
#X msg 552 108 500;
#X floatatom 144 324 5 0 0 0 - - -, f 5;
#X msg 798 628 997 1;
#X obj 1081 50 r \$0-loadbang;
#X obj 1439 59 r \$0-loadbang;
#X obj 1730 59 r \$0-loadbang;
#X obj 204 567 r \$0-loadbang;
#X obj 815 565 r \$0-loadbang;
#X obj 1148 579 r \$0-loadbang;
#X obj 1501 548 r \$0-loadbang;
#X obj 514 595 r \$0-loadbang;
#X obj 358 401 r \$0-loadbang;
#X obj 499 231 r \$0-loadbang;
#X msg 380 425 1;
#X obj 46 141 r \$0-loadbang;
#X msg 68 165 1;
#X obj 62 397 r \$0-loadbang;
#X obj 66 219 metro 60000;
#X obj 447 108 differenceGate;
#X obj 104 64 s \$0-loadbang;
#X obj 92 29 bng 15 250 50 0 empty empty empty 17 7 0 10 -262144 -1
-1;
#X obj 118 35 loadbang;
#X obj 1067 307 throw~ \$0-one~;
#X obj 1077 324 throw~ \$0-two~;
#X obj 1087 341 throw~ \$0-three~;
#X obj 1097 358 throw~ \$0-four~;
#X obj 1107 375 throw~ \$0-five~;
#X obj 1117 392 throw~ \$0-six~;
#X obj 1127 409 throw~ \$0-seven~;
#X obj 1137 426 throw~ \$0-eight~;
#X obj 1404 316 throw~ \$0-one~;
#X obj 1414 333 throw~ \$0-two~;
#X obj 1424 350 throw~ \$0-three~;
#X obj 1434 367 throw~ \$0-four~;
#X obj 1444 384 throw~ \$0-five~;
#X obj 1454 401 throw~ \$0-six~;
#X obj 1464 418 throw~ \$0-seven~;
#X obj 1474 435 throw~ \$0-eight~;
#X obj 1725 314 throw~ \$0-one~;
#X obj 1735 331 throw~ \$0-two~;
#X obj 1745 348 throw~ \$0-three~;
#X obj 1755 365 throw~ \$0-four~;
#X obj 1765 382 throw~ \$0-five~;
#X obj 1775 399 throw~ \$0-six~;
#X obj 1785 416 throw~ \$0-seven~;
#X obj 1795 433 throw~ \$0-eight~;
#X obj 187 823 throw~ \$0-one~;
#X obj 197 840 throw~ \$0-two~;
#X obj 207 857 throw~ \$0-three~;
#X obj 217 874 throw~ \$0-four~;
#X obj 227 891 throw~ \$0-five~;
#X obj 237 908 throw~ \$0-six~;
#X obj 247 925 throw~ \$0-seven~;
#X obj 257 942 throw~ \$0-eight~;
#X obj 503 843 throw~ \$0-one~;
#X obj 513 860 throw~ \$0-two~;
#X obj 523 877 throw~ \$0-three~;
#X obj 533 894 throw~ \$0-four~;
#X obj 543 911 throw~ \$0-five~;
#X obj 553 928 throw~ \$0-six~;
#X obj 563 945 throw~ \$0-seven~;
#X obj 573 962 throw~ \$0-eight~;
#X obj 811 826 throw~ \$0-one~;
#X obj 821 843 throw~ \$0-two~;
#X obj 831 860 throw~ \$0-three~;
#X obj 841 877 throw~ \$0-four~;
#X obj 851 894 throw~ \$0-five~;
#X obj 861 911 throw~ \$0-six~;
#X obj 871 928 throw~ \$0-seven~;
#X obj 881 945 throw~ \$0-eight~;
#X obj 1523 812 throw~ \$0-one~;
#X obj 1533 829 throw~ \$0-two~;
#X obj 1543 846 throw~ \$0-three~;
#X obj 1553 863 throw~ \$0-four~;
#X obj 1563 880 throw~ \$0-five~;
#X obj 1573 897 throw~ \$0-six~;
#X obj 1583 914 throw~ \$0-seven~;
#X obj 1593 931 throw~ \$0-eight~;
#X obj 1161 826 throw~ \$0-one~;
#X obj 1171 843 throw~ \$0-two~;
#X obj 1181 860 throw~ \$0-three~;
#X obj 1191 877 throw~ \$0-four~;
#X obj 1201 894 throw~ \$0-five~;
#X obj 1211 911 throw~ \$0-six~;
#X obj 1221 928 throw~ \$0-seven~;
#X obj 1231 945 throw~ \$0-eight~;
#X obj 408 1255 outlet~;
#X obj 409 1089 catch~ \$0-one~;
#X obj 549 1089 catch~ \$0-two~;
#X obj 689 1089 catch~ \$0-three~;
#X obj 829 1089 catch~ \$0-four~;
#X obj 969 1089 catch~ \$0-five~;
#X obj 1109 1089 catch~ \$0-six~;
#X obj 1249 1089 catch~ \$0-seven~;
#X obj 1389 1089 catch~ \$0-eight~;
#X obj 548 1255 outlet~;
#X obj 688 1255 outlet~;
#X obj 828 1255 outlet~;
#X obj 968 1255 outlet~;
#X obj 1108 1255 outlet~;
#X obj 1248 1255 outlet~;
#X obj 1388 1255 outlet~;
#X obj 409 1234 *~;
#X obj 549 1234 *~;
#X obj 689 1234 *~;
#X obj 829 1234 *~;
#X obj 969 1234 *~;
#X obj 1109 1234 *~;
#X obj 1249 1234 *~;
#X obj 1389 1234 *~;
#X obj 427 1208 vline~;
#X obj 427 1187 pack f f;
#X obj 441 1128 t b;
#X msg 454 1156 10;
#X obj 567 1208 vline~;
#X obj 567 1187 pack f f;
#X obj 581 1128 t b;
#X msg 594 1156 10;
#X obj 707 1208 vline~;
#X obj 707 1187 pack f f;
#X obj 721 1128 t b;
#X msg 734 1156 10;
#X obj 847 1208 vline~;
#X obj 847 1187 pack f f;
#X obj 861 1128 t b;
#X msg 874 1156 10;
#X obj 987 1208 vline~;
#X obj 987 1187 pack f f;
#X obj 1001 1128 t b;
#X msg 1014 1156 10;
#X obj 1127 1208 vline~;
#X obj 1127 1187 pack f f;
#X obj 1141 1128 t b;
#X msg 1154 1156 10;
#X obj 1267 1208 vline~;
#X obj 1267 1187 pack f f;
#X obj 1281 1128 t b;
#X msg 1294 1156 10;
#X obj 1407 1208 vline~;
#X obj 1407 1187 pack f f;
#X obj 1421 1128 t b;
#X msg 1434 1156 10;
#X obj 699 67 inlet;
#X obj 700 102 s \$0-beepVolume;
#X obj 427 1106 r \$0-beepVolume;
#X obj 567 1106 r \$0-beepVolume;
#X obj 707 1106 r \$0-beepVolume;
#X obj 847 1106 r \$0-beepVolume;
#X obj 987 1106 r \$0-beepVolume;
#X obj 1127 1106 r \$0-beepVolume;
#X obj 1267 1106 r \$0-beepVolume;
#X obj 1407 1106 r \$0-beepVolume;
#X obj 71 247 s \$0-minutebang;
#X obj 64 289 r \$0-minutebang;
#X floatatom 766 215 5 0 0 0 - - -, f 5;
#X obj 572 317 r \$0-loadbang;
#X obj 693 169 r \$0-minutebang;
#X msg 580 414 1;
#X msg 696 405 0.5;
#X msg 667 405 2;
#X obj 972 175 soundChooser;
#X obj 48 608 sel 0 1 2 3;
#X msg 184 430 3;
#X obj 934 85 sel 0 1 2 3;
#X obj 1289 93 sel 0 1 2 3;
#X obj 1567 96 sel 0 1 2 3;
#X obj 1357 582 sel 0 1 2 3;
#X obj 1013 597 sel 0 1 2 3;
#X obj 688 595 sel 0 1 2 3;
#X obj 371 619 sel 0 1 2 3;
#X msg 732 406 4;
#X msg 770 407 0.25;
#X msg 806 409 8;
#X obj 686 320 route 0 1 2 3 4;
#X obj 610 338 t b;
#X obj 586 385 delay 3000;
#X obj 673 349 t b;
#X msg 633 361 3000;
#X msg 673 371 6000;
#X obj 713 349 t b;
#X msg 713 371 1500;
#X obj 753 349 t b;
#X msg 753 371 12000;
#X obj 803 349 t b;
#X msg 803 371 750;
#X floatatom 636 461 5 0 0 0 - - -, f 5;
#X floatatom 495 444 5 0 0 0 - - -, f 5;
#X obj 681 235 expr if($f1 <= 50 \, 0 \, 5) \; if($f1 > 50 && $f1 <=
100 \, 1 \, 5) \; if($f1 > 100 && $f1 <= 150 \, 2 \, 5) \; if($f1 >
150 && $f1 <= 200 \, 3 \, 5) \; if($f1 > 200 && $f1 <= 250 \, 4 \,
5) \;;
#X obj 59 344 expr if($f1 <= 70 \, 0 \, 3) \; if($f1 > 70 && $f1 <=
110 \, 1 \, 3) \; if($f1 > 110 && $f1 <= 180 \, 2 \, 3);
#X obj 414 351 osc~ 0.0015;
#X obj 450 421 * 140;
#X obj 636 439 * 140;
#X obj 599 262 + 27500;
#X obj 599 217 random 32500;
#X obj 59 323 random 1500;
#X obj 411 709 soundChooser;
#X obj 88 690 soundChooser;
#X obj 1405 670 soundChooser;
#X obj 1299 181 soundChooser;
#X obj 1621 183 soundChooser;
#X obj 1067 693 soundChooser;
#X obj 735 689 soundChooser;
#X obj 680 213 random 1800;
#X obj 811 48 inlet;
#X obj 812 79 s \$0-allWaveChange;
#X connect 0 0 183 0;
#X connect 1 0 71 0;
#X connect 2 0 75 0;
#X connect 4 0 88 0;
#X connect 5 0 90 0;
#X connect 6 0 9 0;
#X connect 7 0 8 0;
#X connect 8 0 1 1;
#X connect 9 0 2 1;
#X connect 10 0 13 0;
#X connect 11 0 12 0;
#X connect 12 0 10 0;
#X connect 13 0 393 0;
#X connect 15 0 83 0;
#X connect 16 0 82 0;
#X connect 17 0 92 0;
#X connect 18 0 94 0;
#X connect 19 0 22 0;
#X connect 20 0 21 0;
#X connect 21 0 15 1;
#X connect 22 0 16 1;
#X connect 23 0 87 0;
#X connect 24 0 96 0;
#X connect 25 0 26 0;
#X connect 26 0 23 1;
#X connect 27 0 59 0;
#X connect 28 0 63 0;
#X connect 29 0 102 0;
#X connect 30 0 100 0;
#X connect 31 0 33 0;
#X connect 31 0 196 0;
#X connect 32 0 35 0;
#X connect 33 0 34 0;
#X connect 34 0 27 1;
#X connect 35 0 28 1;
#X connect 36 0 196 1;
#X connect 36 0 196 2;
#X connect 36 0 196 3;
#X connect 36 0 196 4;
#X connect 36 0 196 5;
#X connect 37 0 67 0;
#X connect 38 0 98 0;
#X connect 39 0 40 0;
#X connect 40 0 37 1;
#X connect 41 0 43 0;
#X connect 41 0 32 0;
#X connect 42 0 43 1;
#X connect 42 0 43 2;
#X connect 42 0 43 3;
#X connect 42 0 43 4;
#X connect 42 0 43 5;
#X connect 43 0 32 1;
#X connect 43 1 32 2;
#X connect 43 2 32 3;
#X connect 43 3 32 4;
#X connect 43 4 32 5;
#X connect 43 5 32 6;
#X connect 44 0 39 0;
#X connect 44 0 197 0;
#X connect 45 0 197 1;
#X connect 45 0 197 2;
#X connect 45 0 197 3;
#X connect 45 0 197 4;
#X connect 45 0 197 5;
#X connect 46 0 7 0;
#X connect 46 0 198 0;
#X connect 47 0 198 1;
#X connect 47 0 198 2;
#X connect 47 0 198 3;
#X connect 47 0 198 4;
#X connect 47 0 198 5;
#X connect 48 0 6 0;
#X connect 48 0 199 0;
#X connect 49 0 199 1;
#X connect 49 0 199 2;
#X connect 49 0 199 3;
#X connect 49 0 199 4;
#X connect 49 0 199 5;
#X connect 50 0 20 0;
#X connect 50 0 200 0;
#X connect 51 0 200 1;
#X connect 51 0 200 2;
#X connect 51 0 200 3;
#X connect 51 0 200 4;
#X connect 51 0 200 5;
#X connect 52 0 19 0;
#X connect 52 0 201 0;
#X connect 53 0 201 1;
#X connect 53 0 201 2;
#X connect 53 0 201 3;
#X connect 53 0 201 4;
#X connect 53 0 201 5;
#X connect 54 0 25 0;
#X connect 54 0 202 0;
#X connect 55 0 202 1;
#X connect 55 0 202 2;
#X connect 55 0 202 3;
#X connect 55 0 202 4;
#X connect 55 0 202 5;
#X connect 56 0 59 1;
#X connect 57 0 56 0;
#X connect 58 0 56 0;
#X connect 59 0 125 0;
#X connect 60 0 63 1;
#X connect 61 0 60 0;
#X connect 62 0 60 0;
#X connect 63 0 126 0;
#X connect 64 0 67 1;
#X connect 65 0 64 0;
#X connect 66 0 64 0;
#X connect 67 0 127 0;
#X connect 68 0 71 1;
#X connect 69 0 68 0;
#X connect 70 0 68 0;
#X connect 71 0 120 0;
#X connect 72 0 75 1;
#X connect 73 0 72 0;
#X connect 74 0 72 0;
#X connect 75 0 121 0;
#X connect 76 0 83 1;
#X connect 77 0 76 0;
#X connect 78 0 76 0;
#X connect 79 0 82 1;
#X connect 80 0 79 0;
#X connect 81 0 79 0;
#X connect 82 0 123 0;
#X connect 83 0 122 0;
#X connect 84 0 87 1;
#X connect 85 0 84 0;
#X connect 86 0 84 0;
#X connect 87 0 124 0;
#X connect 88 0 89 0;
#X connect 89 0 120 1;
#X connect 90 0 91 0;
#X connect 91 0 121 1;
#X connect 92 0 93 0;
#X connect 93 0 122 1;
#X connect 94 0 95 0;
#X connect 95 0 123 1;
#X connect 96 0 97 0;
#X connect 97 0 124 1;
#X connect 98 0 99 0;
#X connect 99 0 127 1;
#X connect 100 0 101 0;
#X connect 101 0 126 1;
#X connect 102 0 103 0;
#X connect 103 0 125 1;
#X connect 104 0 400 0;
#X connect 105 0 403 0;
#X connect 106 0 404 0;
#X connect 107 0 398 0;
#X connect 108 0 399 0;
#X connect 109 0 402 0;
#X connect 110 0 401 0;
#X connect 111 0 363 0;
#X connect 112 0 363 0;
#X connect 113 0 401 0;
#X connect 114 0 399 0;
#X connect 115 0 402 0;
#X connect 116 0 398 0;
#X connect 117 0 403 0;
#X connect 118 0 404 0;
#X connect 119 0 400 0;
#X connect 120 0 225 0;
#X connect 120 1 226 0;
#X connect 120 2 227 0;
#X connect 120 3 228 0;
#X connect 120 4 229 0;
#X connect 120 5 230 0;
#X connect 120 6 231 0;
#X connect 120 7 232 0;
#X connect 121 0 233 0;
#X connect 121 1 234 0;
#X connect 121 2 235 0;
#X connect 121 3 236 0;
#X connect 121 4 237 0;
#X connect 121 5 238 0;
#X connect 121 6 239 0;
#X connect 121 7 240 0;
#X connect 122 0 241 0;
#X connect 122 1 242 0;
#X connect 122 2 243 0;
#X connect 122 3 244 0;
#X connect 122 4 245 0;
#X connect 122 5 246 0;
#X connect 122 6 247 0;
#X connect 122 7 248 0;
#X connect 123 0 249 0;
#X connect 123 1 250 0;
#X connect 123 2 251 0;
#X connect 123 3 252 0;
#X connect 123 4 253 0;
#X connect 123 5 254 0;
#X connect 123 6 255 0;
#X connect 123 7 256 0;
#X connect 124 0 257 0;
#X connect 124 1 258 0;
#X connect 124 2 259 0;
#X connect 124 3 260 0;
#X connect 124 4 261 0;
#X connect 124 5 262 0;
#X connect 124 6 263 0;
#X connect 124 7 264 0;
#X connect 125 0 265 0;
#X connect 125 1 266 0;
#X connect 125 2 267 0;
#X connect 125 3 268 0;
#X connect 125 4 269 0;
#X connect 125 5 270 0;
#X connect 125 6 271 0;
#X connect 125 7 272 0;
#X connect 126 0 281 0;
#X connect 126 1 282 0;
#X connect 126 2 283 0;
#X connect 126 3 284 0;
#X connect 126 4 285 0;
#X connect 126 5 286 0;
#X connect 126 6 287 0;
#X connect 126 7 288 0;
#X connect 127 0 273 0;
#X connect 127 1 274 0;
#X connect 127 2 275 0;
#X connect 127 3 276 0;
#X connect 127 4 277 0;
#X connect 127 5 278 0;
#X connect 127 6 279 0;
#X connect 127 7 280 0;
#X connect 128 0 363 0;
#X connect 129 0 401 0;
#X connect 130 0 402 0;
#X connect 131 0 399 0;
#X connect 132 0 398 0;
#X connect 133 0 404 0;
#X connect 134 0 403 0;
#X connect 135 0 400 0;
#X connect 136 0 400 1;
#X connect 137 0 403 1;
#X connect 138 0 398 1;
#X connect 139 0 402 1;
#X connect 140 0 401 1;
#X connect 141 0 363 1;
#X connect 142 0 14 0;
#X connect 142 0 183 1;
#X connect 142 0 389 0;
#X connect 143 0 181 0;
#X connect 145 0 366 0;
#X connect 146 0 367 0;
#X connect 147 0 368 0;
#X connect 148 0 364 0;
#X connect 149 0 372 0;
#X connect 150 0 371 0;
#X connect 151 0 370 0;
#X connect 152 0 369 0;
#X connect 153 0 144 0;
#X connect 154 0 144 0;
#X connect 155 0 144 0;
#X connect 156 0 367 0;
#X connect 157 0 368 0;
#X connect 158 0 364 0;
#X connect 159 0 372 0;
#X connect 160 0 371 0;
#X connect 161 0 369 0;
#X connect 162 0 370 0;
#X connect 163 0 366 0;
#X connect 164 0 402 0;
#X connect 165 0 401 0;
#X connect 166 0 363 0;
#X connect 167 0 399 0;
#X connect 168 0 398 0;
#X connect 169 0 404 0;
#X connect 170 0 403 0;
#X connect 171 0 400 0;
#X connect 172 0 173 0;
#X connect 172 1 174 0;
#X connect 172 2 175 0;
#X connect 172 3 176 0;
#X connect 172 4 177 0;
#X connect 172 5 178 0;
#X connect 172 6 179 0;
#X connect 172 7 180 0;
#X connect 181 0 172 0;
#X connect 182 0 399 1;
#X connect 183 0 3 0;
#X connect 184 0 221 0;
#X connect 185 1 186 0;
#X connect 186 0 187 0;
#X connect 186 0 191 0;
#X connect 186 0 396 0;
#X connect 187 0 11 0;
#X connect 187 0 193 0;
#X connect 188 0 11 0;
#X connect 189 0 184 0;
#X connect 190 0 192 0;
#X connect 191 0 188 0;
#X connect 192 0 185 0;
#X connect 193 0 190 0;
#X connect 194 0 220 0;
#X connect 195 0 155 0;
#X connect 195 1 154 0;
#X connect 195 2 153 0;
#X connect 196 0 33 1;
#X connect 196 1 33 2;
#X connect 196 2 33 3;
#X connect 196 3 33 4;
#X connect 196 4 33 5;
#X connect 196 5 33 6;
#X connect 197 0 39 1;
#X connect 197 1 39 2;
#X connect 197 2 39 3;
#X connect 197 3 39 4;
#X connect 197 4 39 5;
#X connect 197 5 39 6;
#X connect 198 0 7 1;
#X connect 198 1 7 2;
#X connect 198 2 7 3;
#X connect 198 3 7 4;
#X connect 198 4 7 5;
#X connect 198 5 7 6;
#X connect 199 0 6 1;
#X connect 199 1 6 2;
#X connect 199 2 6 3;
#X connect 199 3 6 4;
#X connect 199 4 6 5;
#X connect 199 5 6 6;
#X connect 200 0 20 1;
#X connect 200 1 20 2;
#X connect 200 2 20 3;
#X connect 200 3 20 4;
#X connect 200 4 20 5;
#X connect 200 5 20 6;
#X connect 201 0 19 1;
#X connect 201 1 19 2;
#X connect 201 2 19 3;
#X connect 201 3 19 4;
#X connect 201 4 19 5;
#X connect 201 5 19 6;
#X connect 202 0 25 1;
#X connect 202 1 25 2;
#X connect 202 2 25 3;
#X connect 202 3 25 4;
#X connect 202 4 25 5;
#X connect 202 5 25 6;
#X connect 203 0 221 1;
#X connect 205 0 404 1;
#X connect 206 0 141 0;
#X connect 206 0 70 0;
#X connect 207 0 140 0;
#X connect 207 0 74 0;
#X connect 208 0 139 0;
#X connect 208 0 78 0;
#X connect 209 0 182 0;
#X connect 209 0 81 0;
#X connect 210 0 205 0;
#X connect 210 0 58 0;
#X connect 211 0 137 0;
#X connect 211 0 62 0;
#X connect 212 0 136 0;
#X connect 212 0 66 0;
#X connect 213 0 138 0;
#X connect 213 0 86 0;
#X connect 214 0 216 0;
#X connect 215 0 188 0;
#X connect 216 0 0 0;
#X connect 217 0 218 0;
#X connect 218 0 194 0;
#X connect 219 0 155 0;
#X connect 220 0 355 0;
#X connect 221 0 193 0;
#X connect 223 0 222 0;
#X connect 224 0 222 0;
#X connect 290 0 305 0;
#X connect 291 0 306 0;
#X connect 292 0 307 0;
#X connect 293 0 308 0;
#X connect 294 0 309 0;
#X connect 295 0 310 0;
#X connect 296 0 311 0;
#X connect 297 0 312 0;
#X connect 305 0 289 0;
#X connect 306 0 298 0;
#X connect 307 0 299 0;
#X connect 308 0 300 0;
#X connect 309 0 301 0;
#X connect 310 0 302 0;
#X connect 311 0 303 0;
#X connect 312 0 304 0;
#X connect 313 0 305 1;
#X connect 314 0 313 0;
#X connect 315 0 316 0;
#X connect 316 0 314 1;
#X connect 317 0 306 1;
#X connect 318 0 317 0;
#X connect 319 0 320 0;
#X connect 320 0 318 1;
#X connect 321 0 307 1;
#X connect 322 0 321 0;
#X connect 323 0 324 0;
#X connect 324 0 322 1;
#X connect 325 0 308 1;
#X connect 326 0 325 0;
#X connect 327 0 328 0;
#X connect 328 0 326 1;
#X connect 329 0 309 1;
#X connect 330 0 329 0;
#X connect 331 0 332 0;
#X connect 332 0 330 1;
#X connect 333 0 310 1;
#X connect 334 0 333 0;
#X connect 335 0 336 0;
#X connect 336 0 334 1;
#X connect 337 0 311 1;
#X connect 338 0 337 0;
#X connect 339 0 340 0;
#X connect 340 0 338 1;
#X connect 341 0 312 1;
#X connect 342 0 341 0;
#X connect 343 0 344 0;
#X connect 344 0 342 1;
#X connect 345 0 346 0;
#X connect 347 0 315 0;
#X connect 347 0 314 0;
#X connect 348 0 319 0;
#X connect 348 0 318 0;
#X connect 349 0 323 0;
#X connect 349 0 322 0;
#X connect 350 0 326 0;
#X connect 350 0 327 0;
#X connect 351 0 330 0;
#X connect 351 0 331 0;
#X connect 352 0 335 0;
#X connect 352 0 334 0;
#X connect 353 0 339 0;
#X connect 353 0 338 0;
#X connect 354 0 343 0;
#X connect 354 0 342 0;
#X connect 356 0 397 0;
#X connect 358 0 360 0;
#X connect 359 0 405 0;
#X connect 360 0 394 0;
#X connect 361 0 394 0;
#X connect 362 0 394 0;
#X connect 363 0 1 0;
#X connect 364 0 108 0;
#X connect 364 1 114 0;
#X connect 364 2 131 0;
#X connect 364 3 167 0;
#X connect 365 0 144 0;
#X connect 366 0 111 0;
#X connect 366 1 112 0;
#X connect 366 2 128 0;
#X connect 366 3 166 0;
#X connect 367 0 110 0;
#X connect 367 1 113 0;
#X connect 367 2 129 0;
#X connect 367 3 165 0;
#X connect 368 0 109 0;
#X connect 368 1 115 0;
#X connect 368 2 130 0;
#X connect 368 3 164 0;
#X connect 369 0 104 0;
#X connect 369 1 119 0;
#X connect 369 2 135 0;
#X connect 369 3 171 0;
#X connect 370 0 105 0;
#X connect 370 1 117 0;
#X connect 370 2 134 0;
#X connect 370 3 170 0;
#X connect 371 0 106 0;
#X connect 371 1 118 0;
#X connect 371 2 133 0;
#X connect 371 3 169 0;
#X connect 372 0 107 0;
#X connect 372 1 116 0;
#X connect 372 2 132 0;
#X connect 372 3 168 0;
#X connect 373 0 394 0;
#X connect 374 0 394 0;
#X connect 375 0 394 0;
#X connect 376 0 362 0;
#X connect 376 0 377 0;
#X connect 376 1 361 0;
#X connect 376 1 379 0;
#X connect 376 2 373 0;
#X connect 376 2 382 0;
#X connect 376 3 374 0;
#X connect 376 3 384 0;
#X connect 376 4 375 0;
#X connect 376 4 386 0;
#X connect 377 0 378 0;
#X connect 377 0 380 0;
#X connect 378 0 360 0;
#X connect 379 0 381 0;
#X connect 379 0 378 0;
#X connect 380 0 378 1;
#X connect 381 0 378 1;
#X connect 382 0 383 0;
#X connect 382 0 378 0;
#X connect 383 0 378 1;
#X connect 384 0 385 0;
#X connect 384 0 378 0;
#X connect 385 0 378 1;
#X connect 386 0 387 0;
#X connect 386 0 378 0;
#X connect 387 0 378 1;
#X connect 390 0 376 0;
#X connect 390 1 376 0;
#X connect 390 2 376 0;
#X connect 390 3 376 0;
#X connect 391 0 195 0;
#X connect 391 1 195 0;
#X connect 391 2 195 0;
#X connect 392 0 10 0;
#X connect 393 0 142 0;
#X connect 394 0 388 0;
#X connect 394 0 393 1;
#X connect 395 0 191 1;
#X connect 396 0 395 0;
#X connect 397 0 204 0;
#X connect 397 0 391 0;
#X connect 398 0 23 0;
#X connect 399 0 16 0;
#X connect 400 0 37 0;
#X connect 401 0 2 0;
#X connect 402 0 15 0;
#X connect 403 0 28 0;
#X connect 404 0 27 0;
#X connect 405 0 357 0;
#X connect 405 0 390 0;
#X connect 406 0 407 0;
