#N canvas 2 23 1678 919 10;
#X obj 60 644 throw~ l~;
#X obj 247 656 throw~ r~;
#X obj 71 421 catch~ one~;
#X obj 265 395 catch~ two~;
#X obj 272 412 catch~ four~;
#X obj 279 429 catch~ six~;
#X obj 286 446 catch~ eight~;
#X obj 78 438 catch~ three~;
#X obj 85 455 catch~ five~;
#X obj 92 472 catch~ seven~;
#X obj 122 760 dac~ 1 2 3 4 5 6 7 8;
#X obj 626 726 catch~ l~;
#X obj 693 726 catch~ r~;
#X obj 676 783 vu 15 120 empty empty -1 -8 0 10 -66577 -262144 1 0
;
#X obj 654 760 - 100;
#X obj 693 760 - 100;
#X obj 1112 637 throw~ one~;
#X obj 694 783 vu 15 120 empty empty -1 -8 0 10 -66577 -1 1 0;
#X obj 693 743 env~ 128;
#X obj 633 743 env~ 128;
#X obj 441 783 vu 15 120 empty empty -1 -8 0 10 -66577 -262144 1 0
;
#X obj 459 783 vu 15 120 empty empty -1 -8 0 10 -66577 -262144 1 0
;
#X obj 477 783 vu 15 120 empty empty -1 -8 0 10 -66577 -262144 1 0
;
#X obj 495 783 vu 15 120 empty empty -1 -8 0 10 -66577 -262144 1 0
;
#X obj 513 783 vu 15 120 empty empty -1 -8 0 10 -66577 -262144 1 0
;
#X obj 531 783 vu 15 120 empty empty -1 -8 0 10 -66577 -262144 1 0
;
#X obj 549 783 vu 15 120 empty empty -1 -8 0 10 -66577 -262144 1 0
;
#X obj 439 618 - 100;
#X obj 458 655 - 100;
#X obj 458 638 env~ 128;
#X obj 418 601 env~ 128;
#X obj 476 694 - 100;
#X obj 494 743 - 100;
#X obj 494 726 env~ 128;
#X obj 455 677 env~ 128;
#X obj 511 618 - 100;
#X obj 530 655 - 100;
#X obj 530 638 env~ 128;
#X obj 490 601 env~ 128;
#X obj 548 694 - 100;
#X obj 566 743 - 100;
#X obj 566 726 env~ 128;
#X obj 527 677 env~ 128;
#X obj 567 783 vu 15 120 empty empty -1 -8 0 10 -66577 -1 1 0;
#X obj 1150 415 beepSynth, f 13;
#X obj 1392 111 i;
#X obj 1421 111 + 1;
#X obj 635 37 loadbang;
#X obj 1196 332 r \$0-loadbang;
#X obj 639 74 s \$0-loadbang;
#X obj 1541 341 r \$0-loadbang;
#X obj 1392 156 moses 0.5;
#X obj 1443 180 t b;
#X obj 1445 249 route 0 1;
#X obj 1443 202 random 45;
#X obj 1392 133 expr if($f1 >= 25 \, $f1 \, 0);
#X obj 1467 285 t b;
#X msg 1486 370 0 10;
#X obj 1438 421 droneSynth, f 12;
#X obj 1451 396 line;
#X obj 1184 390 line;
#X obj 1112 111 i;
#X obj 1141 111 + 1;
#X obj 1112 156 moses 0.5;
#X obj 1163 180 t b;
#X obj 1165 249 route 0 1;
#X obj 1125 278 t b;
#X obj 1163 202 random 30;
#X obj 1112 132 expr if($f1 >= 20 \, $f1 \, 0);
#X msg 1395 62 1;
#X msg 1426 62 0;
#X msg 1115 62 1;
#X msg 1146 62 0;
#X floatatom 1069 112 5 0 0 0 - - -, f 5;
#X floatatom 1354 115 5 0 0 0 - - -, f 5;
#X msg 1200 91 0;
#X msg 1478 97 0;
#X obj 1112 618 *~ 1;
#X obj 1112 708 *~ 1;
#X obj 1112 798 *~ 1;
#X obj 1112 888 *~ 1;
#X obj 1202 618 *~ 1;
#X obj 1202 708 *~ 1;
#X obj 1202 798 *~ 1;
#X obj 1202 888 *~ 1;
#X obj 1112 727 throw~ two~;
#X obj 1112 817 throw~ three~;
#X obj 1112 907 throw~ four~;
#X obj 1202 637 throw~ five~;
#X obj 1202 727 throw~ six~;
#X obj 1202 817 throw~ seven~;
#X obj 1202 907 throw~ eight~;
#X obj 1527 315 s \$0-beepOn;
#X obj 1212 485 r \$0-beepOn;
#X msg 914 333 1;
#X msg 970 338 0;
#X obj 894 392 cyclone/urn 8;
#X msg 986 371 clear;
#X obj 894 415 route 0 1 2 3 4 5 6 7;
#X obj 894 436 t b;
#X obj 909 456 t b;
#X obj 924 476 t b;
#X obj 939 496 t b;
#X obj 954 436 t b;
#X obj 969 456 t b;
#X obj 984 476 t b;
#X obj 999 496 t b;
#X obj 1132 599 line;
#X obj 1222 599 line;
#X obj 1132 689 line;
#X obj 1222 689 line;
#X obj 1132 779 line;
#X obj 1222 779 line;
#X obj 1132 869 line;
#X obj 1222 869 line;
#X msg 1256 587 1 10;
#X msg 1256 607 0 10;
#X msg 1256 677 1 10;
#X msg 1256 697 0 10;
#X msg 1256 767 1 10;
#X msg 1256 787 0 10;
#X msg 1256 857 1 10;
#X msg 1256 877 0 10;
#X msg 1076 587 1 10;
#X msg 1076 607 0 10;
#X msg 1076 677 1 10;
#X msg 1076 697 0 10;
#X msg 1076 767 1 10;
#X msg 1076 787 0 10;
#X msg 1076 857 1 10;
#X msg 1076 877 0 10;
#X obj 1412 637 throw~ one~;
#X obj 1412 618 *~ 1;
#X obj 1412 708 *~ 1;
#X obj 1412 798 *~ 1;
#X obj 1412 888 *~ 1;
#X obj 1502 618 *~ 1;
#X obj 1518 714 *~ 1;
#X obj 1508 812 *~ 1;
#X obj 1508 902 *~ 1;
#X obj 1412 727 throw~ two~;
#X obj 1412 817 throw~ three~;
#X obj 1412 907 throw~ four~;
#X obj 1502 637 throw~ five~;
#X obj 1518 733 throw~ six~;
#X obj 1508 831 throw~ seven~;
#X obj 1508 921 throw~ eight~;
#X obj 1432 599 line;
#X obj 1522 599 line;
#X obj 1432 689 line;
#X obj 1537 693 line;
#X obj 1432 779 line;
#X obj 1528 793 line;
#X obj 1432 869 line;
#X obj 1528 883 line;
#X msg 1556 607 0 10;
#X msg 1572 703 0 10;
#X msg 1562 801 0 10;
#X msg 1562 891 0 10;
#X msg 1376 607 0 10;
#X msg 1376 697 0 10;
#X msg 1376 787 0 10;
#X msg 1374 878 0 10;
#X obj 1577 538 r \$0-beepOn;
#X obj 1112 88 metro 60000;
#X obj 1395 87 metro 60000;
#X msg 1424 369 3 169705;
#X obj 1020 323 pipe 240000;
#X obj 896 360 metro 27500;
#X obj 1110 337 delay 192500;
#X msg 1135 359 0 27500;
#X obj 1326 185 print droneTime;
#X obj 1344 156 i;
#X obj 1477 38 r \$0-beepOn;
#X obj 1307 78 r \$0-beepOn;
#X obj 1208 351 r \$0-beepOn;
#X obj 1122 35 pipe 10;
#X obj 1122 13 r \$0-beepOn;
#X obj 1188 302 s \$0-droneOn;
#X obj 1206 42 r \$0-droneOn;
#X obj 1022 80 r \$0-droneOn;
#X obj 1059 144 i;
#X obj 1033 180 print beepTime;
#X obj 1378 10 r \$0-droneOn;
#X obj 1378 32 pipe 240000;
#X obj 1418 340 r \$0-droneOn;
#X obj 1349 566 r \$0-oneDroneFlip;
#X obj 785 482 s \$0-oneDroneFlip;
#X obj 1046 566 r \$0-oneDroneFlip;
#X obj 786 507 s \$0-twoDroneFlip;
#X obj 1360 657 r \$0-twoDroneFlip;
#X obj 1050 657 r \$0-twoDroneFlip;
#X obj 779 530 s \$0-threeDroneFlip;
#X obj 1062 747 r \$0-threeDroneFlip;
#X obj 1365 747 r \$0-threeDroneFlip;
#X obj 1066 836 r \$0-fourDroneFlip;
#X obj 1371 837 r \$0-fourDroneFlip;
#X obj 1031 447 s \$0-fiveDroneFlip;
#X obj 1228 569 r \$0-fiveDroneFlip;
#X obj 1560 564 r \$0-fiveDroneFlip;
#X obj 1030 467 s \$0-sixDroneFlip;
#X obj 1223 657 r \$0-sixDroneFlip;
#X obj 1528 664 r \$0-sixDroneFlip;
#X obj 1025 489 s \$0-sevenDroneFlip;
#X obj 1213 749 r \$0-sevenDroneFlip;
#X obj 1529 762 r \$0-sevenDroneFlip;
#X obj 1026 514 s \$0-eightDroneFlip;
#X obj 1222 838 r \$0-eightDroneFlip;
#X obj 1534 851 r \$0-eightDroneFlip;
#X msg 1376 587 1 500;
#X msg 1376 677 1 500;
#X msg 1376 767 1 500;
#X msg 1376 857 1 500;
#X msg 1562 871 1 500;
#X msg 1562 781 1 500;
#X msg 1572 683 1 500;
#X msg 1556 587 1 500;
#X obj 778 554 s \$0-fourDroneFlip;
#X obj 1443 226 expr if($f1 < ($f2 - 5) \, 1 \, 0);
#X obj 1163 226 expr if($f1 < ($f2 - 4) \, 1 \, 0);
#X obj 1028 27 r \$0-loadbang;
#X msg 777 76 \; pd dsp 1 \;;
#X obj 1286 166 bng 15 250 50 0 empty empty empty 17 7 0 10 -262144
-1 -1;
#X msg 1202 370 1.25 10;
#X msg 1270 384 0;
#X connect 2 0 0 0;
#X connect 2 0 10 0;
#X connect 2 0 30 0;
#X connect 3 0 1 0;
#X connect 3 0 10 1;
#X connect 3 0 29 0;
#X connect 4 0 1 0;
#X connect 4 0 10 3;
#X connect 4 0 33 0;
#X connect 5 0 1 0;
#X connect 5 0 10 5;
#X connect 5 0 37 0;
#X connect 6 0 1 0;
#X connect 6 0 10 7;
#X connect 6 0 41 0;
#X connect 7 0 0 0;
#X connect 7 0 10 2;
#X connect 7 0 34 0;
#X connect 8 0 0 0;
#X connect 8 0 10 4;
#X connect 8 0 38 0;
#X connect 9 0 0 0;
#X connect 9 0 10 6;
#X connect 9 0 42 0;
#X connect 11 0 19 0;
#X connect 12 0 18 0;
#X connect 14 0 13 0;
#X connect 15 0 17 0;
#X connect 18 0 15 0;
#X connect 19 0 14 0;
#X connect 27 0 20 0;
#X connect 28 0 21 0;
#X connect 29 0 28 0;
#X connect 30 0 27 0;
#X connect 31 0 22 0;
#X connect 32 0 23 0;
#X connect 33 0 32 0;
#X connect 34 0 31 0;
#X connect 35 0 24 0;
#X connect 36 0 25 0;
#X connect 37 0 36 0;
#X connect 38 0 35 0;
#X connect 39 0 26 0;
#X connect 40 0 43 0;
#X connect 41 0 40 0;
#X connect 42 0 39 0;
#X connect 44 0 77 0;
#X connect 44 1 78 0;
#X connect 44 2 79 0;
#X connect 44 3 80 0;
#X connect 44 4 81 0;
#X connect 44 5 82 0;
#X connect 44 6 83 0;
#X connect 44 7 84 0;
#X connect 45 0 46 0;
#X connect 45 0 55 0;
#X connect 45 0 74 0;
#X connect 46 0 45 1;
#X connect 47 0 49 0;
#X connect 47 0 221 0;
#X connect 48 0 223 0;
#X connect 50 0 57 0;
#X connect 51 1 52 0;
#X connect 51 1 218 1;
#X connect 52 0 54 0;
#X connect 53 1 56 0;
#X connect 54 0 218 0;
#X connect 55 0 51 0;
#X connect 56 0 57 0;
#X connect 56 0 92 0;
#X connect 56 0 224 0;
#X connect 57 0 59 0;
#X connect 58 0 132 0;
#X connect 58 1 133 0;
#X connect 58 2 134 0;
#X connect 58 3 135 0;
#X connect 58 4 136 0;
#X connect 58 5 137 0;
#X connect 58 6 138 0;
#X connect 58 7 139 0;
#X connect 59 0 58 0;
#X connect 60 0 44 0;
#X connect 61 0 62 0;
#X connect 61 0 68 0;
#X connect 61 0 73 0;
#X connect 62 0 61 1;
#X connect 63 1 64 0;
#X connect 63 1 219 1;
#X connect 64 0 67 0;
#X connect 65 1 66 0;
#X connect 66 0 94 0;
#X connect 66 0 167 0;
#X connect 66 0 169 0;
#X connect 66 0 178 0;
#X connect 67 0 219 0;
#X connect 68 0 63 0;
#X connect 69 0 165 0;
#X connect 70 0 165 0;
#X connect 71 0 164 0;
#X connect 72 0 164 0;
#X connect 73 0 181 1;
#X connect 74 0 172 1;
#X connect 75 0 62 0;
#X connect 75 0 61 1;
#X connect 75 0 61 0;
#X connect 76 0 46 0;
#X connect 76 0 45 1;
#X connect 76 0 45 0;
#X connect 77 0 16 0;
#X connect 78 0 85 0;
#X connect 79 0 86 0;
#X connect 80 0 87 0;
#X connect 81 0 88 0;
#X connect 82 0 89 0;
#X connect 83 0 90 0;
#X connect 84 0 91 0;
#X connect 93 0 115 0;
#X connect 93 0 117 0;
#X connect 93 0 119 0;
#X connect 93 0 121 0;
#X connect 93 0 123 0;
#X connect 93 0 125 0;
#X connect 93 0 127 0;
#X connect 93 0 129 0;
#X connect 94 0 168 0;
#X connect 95 0 168 0;
#X connect 96 0 98 0;
#X connect 97 0 96 0;
#X connect 98 0 99 0;
#X connect 98 1 100 0;
#X connect 98 2 101 0;
#X connect 98 3 102 0;
#X connect 98 4 103 0;
#X connect 98 5 104 0;
#X connect 98 6 105 0;
#X connect 98 7 106 0;
#X connect 99 0 187 0;
#X connect 100 0 189 0;
#X connect 101 0 192 0;
#X connect 102 0 217 0;
#X connect 103 0 197 0;
#X connect 104 0 200 0;
#X connect 105 0 203 0;
#X connect 106 0 206 0;
#X connect 107 0 77 1;
#X connect 108 0 81 1;
#X connect 109 0 78 1;
#X connect 110 0 82 1;
#X connect 111 0 79 1;
#X connect 112 0 83 1;
#X connect 113 0 80 1;
#X connect 114 0 84 1;
#X connect 115 0 108 0;
#X connect 116 0 108 0;
#X connect 117 0 110 0;
#X connect 118 0 110 0;
#X connect 119 0 112 0;
#X connect 120 0 112 0;
#X connect 121 0 114 0;
#X connect 122 0 114 0;
#X connect 123 0 107 0;
#X connect 124 0 107 0;
#X connect 125 0 109 0;
#X connect 126 0 109 0;
#X connect 127 0 111 0;
#X connect 128 0 111 0;
#X connect 129 0 113 0;
#X connect 130 0 113 0;
#X connect 132 0 131 0;
#X connect 133 0 140 0;
#X connect 134 0 141 0;
#X connect 135 0 142 0;
#X connect 136 0 143 0;
#X connect 137 0 144 0;
#X connect 138 0 145 0;
#X connect 139 0 146 0;
#X connect 147 0 132 1;
#X connect 148 0 136 1;
#X connect 149 0 133 1;
#X connect 150 0 137 1;
#X connect 151 0 134 1;
#X connect 152 0 138 1;
#X connect 153 0 135 1;
#X connect 154 0 139 1;
#X connect 155 0 148 0;
#X connect 156 0 150 0;
#X connect 157 0 152 0;
#X connect 158 0 154 0;
#X connect 159 0 147 0;
#X connect 160 0 149 0;
#X connect 161 0 151 0;
#X connect 162 0 153 0;
#X connect 163 0 159 0;
#X connect 163 0 155 0;
#X connect 163 0 160 0;
#X connect 163 0 156 0;
#X connect 163 0 161 0;
#X connect 163 0 157 0;
#X connect 163 0 162 0;
#X connect 163 0 158 0;
#X connect 164 0 61 0;
#X connect 165 0 45 0;
#X connect 166 0 59 0;
#X connect 167 0 95 0;
#X connect 167 0 97 0;
#X connect 168 0 96 0;
#X connect 169 0 170 0;
#X connect 170 0 60 0;
#X connect 172 0 171 0;
#X connect 173 0 70 0;
#X connect 173 0 76 0;
#X connect 174 0 172 0;
#X connect 175 0 223 0;
#X connect 176 0 71 0;
#X connect 177 0 176 0;
#X connect 179 0 75 0;
#X connect 179 0 72 0;
#X connect 180 0 181 0;
#X connect 181 0 182 0;
#X connect 183 0 184 0;
#X connect 184 0 69 0;
#X connect 185 0 166 0;
#X connect 186 0 209 0;
#X connect 188 0 124 0;
#X connect 190 0 210 0;
#X connect 191 0 126 0;
#X connect 193 0 128 0;
#X connect 194 0 211 0;
#X connect 195 0 130 0;
#X connect 196 0 212 0;
#X connect 198 0 116 0;
#X connect 199 0 216 0;
#X connect 201 0 118 0;
#X connect 202 0 215 0;
#X connect 204 0 120 0;
#X connect 205 0 214 0;
#X connect 207 0 122 0;
#X connect 208 0 213 0;
#X connect 209 0 147 0;
#X connect 210 0 149 0;
#X connect 211 0 151 0;
#X connect 212 0 153 0;
#X connect 213 0 154 0;
#X connect 214 0 152 0;
#X connect 215 0 150 0;
#X connect 216 0 148 0;
#X connect 218 0 53 0;
#X connect 219 0 65 0;
#X connect 220 0 71 0;
#X connect 222 0 45 0;
#X connect 223 0 60 0;
#X connect 224 0 44 1;
