#N canvas 881 413 450 300 10;
#X obj 116 69 inlet;
#X obj 256 70 inlet;
#X obj 117 256 outlet;
#X obj 117 229 spigot;
#X obj 143 135 ==;
#X obj 141 157 moses 0.5;
#X obj 141 176 t b;
#X obj 190 177 t b;
#X msg 190 196 0;
#X msg 141 195 1;
#X obj 141 113 pipe 50;
#X connect 0 0 4 1;
#X connect 0 0 3 0;
#X connect 0 0 10 0;
#X connect 1 0 10 1;
#X connect 3 0 2 0;
#X connect 4 0 5 0;
#X connect 5 0 6 0;
#X connect 5 1 7 0;
#X connect 6 0 9 0;
#X connect 7 0 8 0;
#X connect 8 0 3 1;
#X connect 9 0 3 1;
#X connect 10 0 4 0;
