#N canvas 69 90 1564 934 10;
#X obj 50 572 throw~ one~;
#X obj 59 589 throw~ two~;
#X obj 69 606 throw~ three~;
#X obj 79 623 throw~ four~;
#X obj 89 640 throw~ five~;
#X obj 99 657 throw~ six~;
#X obj 109 674 throw~ seven~;
#X obj 119 691 throw~ eight~;
#X obj 50 545 eightPanner;
#X obj 58 474 *~;
#X obj 210 572 throw~ one~;
#X obj 219 589 throw~ two~;
#X obj 229 606 throw~ three~;
#X obj 239 623 throw~ four~;
#X obj 249 640 throw~ five~;
#X obj 259 657 throw~ six~;
#X obj 269 674 throw~ seven~;
#X obj 279 691 throw~ eight~;
#X obj 210 545 eightPanner;
#X obj 218 474 *~;
#X obj 370 572 throw~ one~;
#X obj 379 589 throw~ two~;
#X obj 389 606 throw~ three~;
#X obj 399 623 throw~ four~;
#X obj 409 640 throw~ five~;
#X obj 419 657 throw~ six~;
#X obj 429 674 throw~ seven~;
#X obj 439 691 throw~ eight~;
#X obj 370 545 eightPanner;
#X obj 378 474 *~;
#X obj 530 572 throw~ one~;
#X obj 539 589 throw~ two~;
#X obj 549 606 throw~ three~;
#X obj 559 623 throw~ four~;
#X obj 569 640 throw~ five~;
#X obj 579 657 throw~ six~;
#X obj 589 674 throw~ seven~;
#X obj 599 691 throw~ eight~;
#X obj 530 545 eightPanner;
#X obj 538 474 *~;
#X obj 690 572 throw~ one~;
#X obj 699 589 throw~ two~;
#X obj 709 606 throw~ three~;
#X obj 719 623 throw~ four~;
#X obj 729 640 throw~ five~;
#X obj 739 657 throw~ six~;
#X obj 749 674 throw~ seven~;
#X obj 759 691 throw~ eight~;
#X obj 690 545 eightPanner;
#X obj 698 474 *~;
#X obj 850 572 throw~ one~;
#X obj 859 589 throw~ two~;
#X obj 869 606 throw~ three~;
#X obj 879 623 throw~ four~;
#X obj 889 640 throw~ five~;
#X obj 899 657 throw~ six~;
#X obj 909 674 throw~ seven~;
#X obj 919 691 throw~ eight~;
#X obj 850 545 eightPanner;
#X obj 858 474 *~;
#X obj 1010 572 throw~ one~;
#X obj 1019 589 throw~ two~;
#X obj 1029 606 throw~ three~;
#X obj 1039 623 throw~ four~;
#X obj 1049 640 throw~ five~;
#X obj 1059 657 throw~ six~;
#X obj 1069 674 throw~ seven~;
#X obj 1079 691 throw~ eight~;
#X obj 1010 545 eightPanner;
#X obj 1018 474 *~;
#X obj 1170 572 throw~ one~;
#X obj 1179 589 throw~ two~;
#X obj 1189 606 throw~ three~;
#X obj 1199 623 throw~ four~;
#X obj 1209 640 throw~ five~;
#X obj 1219 657 throw~ six~;
#X obj 1229 674 throw~ seven~;
#X obj 1239 691 throw~ eight~;
#X obj 1170 545 eightPanner;
#X obj 1178 474 *~;
#X msg 111 455 1;
#X msg 271 455 2;
#X msg 431 455 3;
#X msg 591 455 4;
#X msg 751 455 5;
#X msg 1071 455 7;
#X msg 1231 455 8;
#X msg 911 455 6;
#X msg 98 429 0.1;
#X msg 258 429 0.1;
#X msg 418 429 0.1;
#X msg 578 429 0.1;
#X msg 738 429 0.1;
#X msg 898 429 0.1;
#X msg 1057 429 0.1;
#X msg 1218 429 0.1;
#X obj 48 312 snapshot~;
#X obj 111 290 metro 100;
#X obj 113 270 tgl 15 0 empty empty empty 17 7 0 10 -262144 -1 -1 1
1;
#X obj 56 365 +;
#X obj 199 330 snapshot~;
#X obj 260 301 metro 100;
#X obj 262 280 tgl 15 0 empty empty empty 17 7 0 10 -262144 -1 -1 1
1;
#X obj 211 382 +;
#X obj 363 328 snapshot~;
#X obj 422 301 metro 100;
#X obj 425 280 tgl 15 0 empty empty empty 17 7 0 10 -262144 -1 -1 1
1;
#X obj 372 375 +;
#X obj 521 330 snapshot~;
#X obj 590 307 metro 100;
#X obj 594 285 tgl 15 0 empty empty empty 17 7 0 10 -262144 -1 -1 1
1;
#X obj 534 380 +;
#X obj 687 325 snapshot~;
#X obj 750 303 metro 100;
#X obj 752 283 tgl 15 0 empty empty empty 17 7 0 10 -262144 -1 -1 1
1;
#X obj 695 378 +;
#X obj 859 330 snapshot~;
#X obj 920 301 metro 100;
#X obj 922 280 tgl 15 0 empty empty empty 17 7 0 10 -262144 -1 -1 1
1;
#X obj 871 382 +;
#X obj 1023 328 snapshot~;
#X obj 1082 301 metro 100;
#X obj 1085 280 tgl 15 0 empty empty empty 17 7 0 10 -262144 -1 -1
1 1;
#X obj 1032 375 +;
#X obj 1181 330 snapshot~;
#X obj 1250 307 metro 100;
#X obj 1254 285 tgl 15 0 empty empty empty 17 7 0 10 -262144 -1 -1
1 1;
#X obj 1194 380 +;
#X obj 612 101 s \$0-phasereset;
#X obj 31 220 r \$0-phasereset;
#X obj 181 220 r \$0-phasereset;
#X obj 351 210 r \$0-phasereset;
#X obj 511 210 r \$0-phasereset;
#X obj 671 220 r \$0-phasereset;
#X obj 841 220 r \$0-phasereset;
#X obj 1011 210 r \$0-phasereset;
#X obj 1171 210 r \$0-phasereset;
#X msg 610 70 0.01;
#X obj 34 283 osc~ 0.001;
#X obj 186 292 osc~ 0.001;
#X obj 349 291 osc~ 0.001;
#X obj 513 296 osc~ 0.001;
#X obj 846 292 osc~ 0.001;
#X obj 1010 291 osc~ 0.001;
#X obj 1173 297 osc~ 0.001;
#X obj 50 333 * 97;
#X obj 197 353 * 101;
#X obj 363 350 * 103;
#X obj 521 354 * 107;
#X obj 689 346 * 109;
#X obj 857 353 * 113;
#X obj 1023 350 * 127;
#X obj 1181 354 * 131;
#X obj 673 295 osc~ 0.001;
#X msg 88 341 151;
#X msg 235 355 151;
#X msg 400 354 151;
#X msg 554 354 151;
#X msg 726 351 151;
#X msg 905 357 151;
#X msg 1066 350 151;
#X msg 1225 353 151;
#X obj 50 402 osc~;
#X obj 210 403 osc~;
#X obj 370 403 osc~;
#X obj 532 403 osc~;
#X obj 690 403 osc~;
#X obj 850 404 osc~;
#X obj 1011 403 osc~;
#X obj 1171 404 osc~;
#X connect 8 0 0 0;
#X connect 8 1 1 0;
#X connect 8 2 2 0;
#X connect 8 3 3 0;
#X connect 8 4 4 0;
#X connect 8 5 5 0;
#X connect 8 6 6 0;
#X connect 8 7 7 0;
#X connect 9 0 8 0;
#X connect 18 0 10 0;
#X connect 18 1 11 0;
#X connect 18 2 12 0;
#X connect 18 3 13 0;
#X connect 18 4 14 0;
#X connect 18 5 15 0;
#X connect 18 6 16 0;
#X connect 18 7 17 0;
#X connect 19 0 18 0;
#X connect 28 0 20 0;
#X connect 28 1 21 0;
#X connect 28 2 22 0;
#X connect 28 3 23 0;
#X connect 28 4 24 0;
#X connect 28 5 25 0;
#X connect 28 6 26 0;
#X connect 28 7 27 0;
#X connect 29 0 28 0;
#X connect 38 0 30 0;
#X connect 38 1 31 0;
#X connect 38 2 32 0;
#X connect 38 3 33 0;
#X connect 38 4 34 0;
#X connect 38 5 35 0;
#X connect 38 6 36 0;
#X connect 38 7 37 0;
#X connect 39 0 38 0;
#X connect 48 0 40 0;
#X connect 48 1 41 0;
#X connect 48 2 42 0;
#X connect 48 3 43 0;
#X connect 48 4 44 0;
#X connect 48 5 45 0;
#X connect 48 6 46 0;
#X connect 48 7 47 0;
#X connect 49 0 48 0;
#X connect 58 0 50 0;
#X connect 58 1 51 0;
#X connect 58 2 52 0;
#X connect 58 3 53 0;
#X connect 58 4 54 0;
#X connect 58 5 55 0;
#X connect 58 6 56 0;
#X connect 58 7 57 0;
#X connect 59 0 58 0;
#X connect 68 0 60 0;
#X connect 68 1 61 0;
#X connect 68 2 62 0;
#X connect 68 3 63 0;
#X connect 68 4 64 0;
#X connect 68 5 65 0;
#X connect 68 6 66 0;
#X connect 68 7 67 0;
#X connect 69 0 68 0;
#X connect 78 0 70 0;
#X connect 78 1 71 0;
#X connect 78 2 72 0;
#X connect 78 3 73 0;
#X connect 78 4 74 0;
#X connect 78 5 75 0;
#X connect 78 6 76 0;
#X connect 78 7 77 0;
#X connect 79 0 78 0;
#X connect 80 0 8 1;
#X connect 81 0 18 1;
#X connect 82 0 28 1;
#X connect 83 0 38 1;
#X connect 84 0 48 1;
#X connect 85 0 68 1;
#X connect 86 0 78 1;
#X connect 87 0 58 1;
#X connect 88 0 9 1;
#X connect 89 0 19 1;
#X connect 90 0 29 1;
#X connect 91 0 39 1;
#X connect 92 0 49 1;
#X connect 93 0 59 1;
#X connect 94 0 69 1;
#X connect 95 0 79 1;
#X connect 96 0 145 0;
#X connect 97 0 96 0;
#X connect 98 0 97 0;
#X connect 99 0 162 0;
#X connect 100 0 146 0;
#X connect 101 0 100 0;
#X connect 102 0 101 0;
#X connect 103 0 163 0;
#X connect 104 0 147 0;
#X connect 105 0 104 0;
#X connect 106 0 105 0;
#X connect 107 0 164 0;
#X connect 108 0 148 0;
#X connect 109 0 108 0;
#X connect 110 0 109 0;
#X connect 111 0 165 0;
#X connect 112 0 149 0;
#X connect 113 0 112 0;
#X connect 114 0 113 0;
#X connect 115 0 166 0;
#X connect 116 0 150 0;
#X connect 117 0 116 0;
#X connect 118 0 117 0;
#X connect 119 0 167 0;
#X connect 120 0 151 0;
#X connect 121 0 120 0;
#X connect 122 0 121 0;
#X connect 123 0 168 0;
#X connect 124 0 152 0;
#X connect 125 0 124 0;
#X connect 126 0 125 0;
#X connect 127 0 169 0;
#X connect 129 0 138 1;
#X connect 130 0 139 1;
#X connect 131 0 140 1;
#X connect 132 0 141 1;
#X connect 133 0 153 1;
#X connect 134 0 142 1;
#X connect 135 0 143 1;
#X connect 136 0 144 1;
#X connect 137 0 128 0;
#X connect 138 0 96 0;
#X connect 139 0 100 0;
#X connect 140 0 104 0;
#X connect 141 0 108 0;
#X connect 142 0 116 0;
#X connect 143 0 120 0;
#X connect 144 0 124 0;
#X connect 145 0 99 0;
#X connect 146 0 103 0;
#X connect 147 0 107 0;
#X connect 148 0 111 0;
#X connect 149 0 115 0;
#X connect 150 0 119 0;
#X connect 151 0 123 0;
#X connect 152 0 127 0;
#X connect 153 0 112 0;
#X connect 154 0 99 1;
#X connect 155 0 103 1;
#X connect 156 0 107 1;
#X connect 157 0 111 1;
#X connect 158 0 115 1;
#X connect 159 0 119 1;
#X connect 160 0 123 1;
#X connect 161 0 127 1;
#X connect 162 0 9 0;
#X connect 163 0 19 0;
#X connect 164 0 29 0;
#X connect 165 0 39 0;
#X connect 166 0 49 0;
#X connect 167 0 59 0;
#X connect 168 0 69 0;
#X connect 169 0 79 0;
