#N canvas 542 128 1009 727 10;
#X obj 48 357 inlet~;
#X obj 483 123 inlet;
#X obj 238 580 outlet~;
#X obj 148 580 outlet~;
#X obj 428 580 outlet~;
#X obj 328 580 outlet~;
#X obj 628 580 outlet~;
#X obj 528 580 outlet~;
#X obj 818 580 outlet~;
#X obj 718 580 outlet~;
#X obj 483 153 sel 1 2 3 4 5 6 7 8;
#X obj 161 520 line~;
#X obj 148 548 *~;
#X obj 238 548 *~;
#X obj 328 548 *~;
#X obj 428 548 *~;
#X obj 528 548 *~;
#X obj 628 548 *~;
#X obj 718 548 *~;
#X obj 818 548 *~;
#X obj 162 198 s \$0-playOne;
#X obj 252 198 s \$0-playTwo;
#X obj 330 198 s \$0-playThree;
#X obj 426 198 s \$0-playFour;
#X obj 517 198 s \$0-playFive;
#X obj 612 198 s \$0-playSix;
#X obj 690 198 s \$0-playSeven;
#X obj 780 198 s \$0-playEight;
#X obj 252 215 s \$0-muteOne;
#X obj 162 215 s \$0-muteTwo;
#X obj 150 232 s \$0-muteThree;
#X obj 156 249 s \$0-muteFour;
#X obj 156 266 s \$0-muteFive;
#X obj 162 283 s \$0-muteSix;
#X obj 150 300 s \$0-muteSeven;
#X obj 150 317 s \$0-muteEight;
#X obj 240 232 s \$0-muteThree;
#X obj 246 249 s \$0-muteFour;
#X obj 246 266 s \$0-muteFive;
#X obj 252 283 s \$0-muteSix;
#X obj 240 300 s \$0-muteSeven;
#X obj 240 317 s \$0-muteEight;
#X obj 342 215 s \$0-muteOne;
#X obj 432 215 s \$0-muteOne;
#X obj 522 215 s \$0-muteOne;
#X obj 612 215 s \$0-muteOne;
#X obj 702 215 s \$0-muteOne;
#X obj 792 215 s \$0-muteOne;
#X obj 342 232 s \$0-muteTwo;
#X obj 336 249 s \$0-muteFour;
#X obj 336 266 s \$0-muteFive;
#X obj 342 283 s \$0-muteSix;
#X obj 330 300 s \$0-muteSeven;
#X obj 330 317 s \$0-muteEight;
#X obj 432 232 s \$0-muteTwo;
#X obj 420 249 s \$0-muteThree;
#X obj 426 266 s \$0-muteFive;
#X obj 432 283 s \$0-muteSix;
#X obj 420 300 s \$0-muteSeven;
#X obj 420 317 s \$0-muteEight;
#X obj 522 232 s \$0-muteTwo;
#X obj 510 249 s \$0-muteThree;
#X obj 516 266 s \$0-muteFour;
#X obj 522 283 s \$0-muteSix;
#X obj 510 300 s \$0-muteSeven;
#X obj 510 317 s \$0-muteEight;
#X obj 612 232 s \$0-muteTwo;
#X obj 600 249 s \$0-muteThree;
#X obj 606 266 s \$0-muteFour;
#X obj 606 283 s \$0-muteFive;
#X obj 600 300 s \$0-muteSeven;
#X obj 600 317 s \$0-muteEight;
#X obj 702 232 s \$0-muteTwo;
#X obj 690 249 s \$0-muteThree;
#X obj 696 266 s \$0-muteFour;
#X obj 696 283 s \$0-muteFive;
#X obj 702 300 s \$0-muteSix;
#X obj 690 317 s \$0-muteEight;
#X obj 792 232 s \$0-muteTwo;
#X obj 780 249 s \$0-muteThree;
#X obj 786 266 s \$0-muteFour;
#X obj 786 283 s \$0-muteFive;
#X obj 792 300 s \$0-muteSix;
#X obj 780 317 s \$0-muteSeven;
#X obj 165 443 r \$0-playOne;
#X obj 173 460 r \$0-muteOne;
#X obj 251 520 line~;
#X obj 341 520 line~;
#X obj 441 520 line~;
#X obj 541 520 line~;
#X obj 641 520 line~;
#X obj 731 520 line~;
#X obj 831 520 line~;
#X obj 255 443 r \$0-playTwo;
#X obj 263 460 r \$0-muteTwo;
#X obj 345 443 r \$0-playThree;
#X obj 353 460 r \$0-muteThree;
#X obj 445 443 r \$0-playFour;
#X obj 453 460 r \$0-muteFour;
#X obj 545 443 r \$0-playFive;
#X obj 553 460 r \$0-muteFive;
#X obj 645 443 r \$0-playSix;
#X obj 653 460 r \$0-muteSix;
#X obj 735 443 r \$0-playSeven;
#X obj 743 460 r \$0-muteSeven;
#X obj 835 443 r \$0-playEight;
#X obj 843 460 r \$0-muteEight;
#X msg 164 481 1 10;
#X msg 172 500 0 10;
#X msg 254 481 1 10;
#X msg 262 500 0 10;
#X msg 344 481 1 10;
#X msg 352 500 0 10;
#X msg 444 481 1 10;
#X msg 452 500 0 10;
#X msg 544 481 1 10;
#X msg 552 500 0 10;
#X msg 644 481 1 10;
#X msg 652 500 0 10;
#X msg 734 481 1 10;
#X msg 742 500 0 10;
#X msg 834 481 1 10;
#X msg 842 500 0 10;
#X connect 0 0 12 0;
#X connect 0 0 13 0;
#X connect 0 0 14 0;
#X connect 0 0 15 0;
#X connect 0 0 16 0;
#X connect 0 0 17 0;
#X connect 0 0 18 0;
#X connect 0 0 19 0;
#X connect 1 0 10 0;
#X connect 10 0 20 0;
#X connect 10 0 29 0;
#X connect 10 0 30 0;
#X connect 10 0 31 0;
#X connect 10 0 32 0;
#X connect 10 0 33 0;
#X connect 10 0 34 0;
#X connect 10 0 35 0;
#X connect 10 1 21 0;
#X connect 10 1 28 0;
#X connect 10 1 36 0;
#X connect 10 1 37 0;
#X connect 10 1 38 0;
#X connect 10 1 39 0;
#X connect 10 1 40 0;
#X connect 10 1 41 0;
#X connect 10 2 22 0;
#X connect 10 2 42 0;
#X connect 10 2 48 0;
#X connect 10 2 49 0;
#X connect 10 2 50 0;
#X connect 10 2 51 0;
#X connect 10 2 52 0;
#X connect 10 2 53 0;
#X connect 10 3 23 0;
#X connect 10 3 43 0;
#X connect 10 3 54 0;
#X connect 10 3 55 0;
#X connect 10 3 56 0;
#X connect 10 3 57 0;
#X connect 10 3 58 0;
#X connect 10 3 59 0;
#X connect 10 4 24 0;
#X connect 10 4 44 0;
#X connect 10 4 60 0;
#X connect 10 4 61 0;
#X connect 10 4 62 0;
#X connect 10 4 63 0;
#X connect 10 4 64 0;
#X connect 10 4 65 0;
#X connect 10 5 25 0;
#X connect 10 5 45 0;
#X connect 10 5 66 0;
#X connect 10 5 67 0;
#X connect 10 5 68 0;
#X connect 10 5 69 0;
#X connect 10 5 70 0;
#X connect 10 5 71 0;
#X connect 10 6 26 0;
#X connect 10 6 46 0;
#X connect 10 6 72 0;
#X connect 10 6 73 0;
#X connect 10 6 74 0;
#X connect 10 6 75 0;
#X connect 10 6 76 0;
#X connect 10 6 77 0;
#X connect 10 7 27 0;
#X connect 10 7 47 0;
#X connect 10 7 78 0;
#X connect 10 7 79 0;
#X connect 10 7 80 0;
#X connect 10 7 81 0;
#X connect 10 7 82 0;
#X connect 10 7 83 0;
#X connect 11 0 12 1;
#X connect 12 0 3 0;
#X connect 13 0 2 0;
#X connect 14 0 5 0;
#X connect 15 0 4 0;
#X connect 16 0 7 0;
#X connect 17 0 6 0;
#X connect 18 0 9 0;
#X connect 19 0 8 0;
#X connect 84 0 107 0;
#X connect 85 0 108 0;
#X connect 86 0 13 1;
#X connect 87 0 14 1;
#X connect 88 0 15 1;
#X connect 89 0 16 1;
#X connect 90 0 17 1;
#X connect 91 0 18 1;
#X connect 92 0 19 1;
#X connect 93 0 109 0;
#X connect 94 0 110 0;
#X connect 95 0 111 0;
#X connect 96 0 112 0;
#X connect 97 0 113 0;
#X connect 98 0 114 0;
#X connect 99 0 115 0;
#X connect 100 0 116 0;
#X connect 101 0 117 0;
#X connect 102 0 118 0;
#X connect 103 0 119 0;
#X connect 104 0 120 0;
#X connect 105 0 121 0;
#X connect 106 0 122 0;
#X connect 107 0 11 0;
#X connect 108 0 11 0;
#X connect 109 0 86 0;
#X connect 110 0 86 0;
#X connect 111 0 87 0;
#X connect 112 0 87 0;
#X connect 113 0 88 0;
#X connect 114 0 88 0;
#X connect 115 0 89 0;
#X connect 116 0 89 0;
#X connect 117 0 90 0;
#X connect 118 0 90 0;
#X connect 119 0 91 0;
#X connect 120 0 91 0;
#X connect 121 0 92 0;
#X connect 122 0 92 0;
