#N canvas 584 170 450 300 10;
#X obj 181 36 inlet;
#X obj 278 35 inlet;
#X obj 113 243 outlet~;
#X floatatom 106 116 8 0 0 0 - - -, f 8;
#X text 158 115 interval;
#X text 159 133 octave;
#X text 159 151 frequency;
#X floatatom 106 134 8 0 0 0 - - -, f 8;
#X floatatom 107 152 8 0 0 0 - - -, f 8;
#X obj 87 170 * 1;
#X obj 88 194 * 1;
#X obj 117 215 osc~;
#X obj 38 44 inlet;
#X connect 0 0 9 1;
#X connect 0 0 3 0;
#X connect 1 0 10 1;
#X connect 1 0 7 0;
#X connect 9 0 10 0;
#X connect 10 0 11 0;
#X connect 10 0 8 0;
#X connect 11 0 2 0;
#X connect 12 0 9 0;
#X coords 0 -1 1 1 120 75 1 100 100;
