#N canvas 343 358 669 544 10;
#X obj 262 58 inlet;
#X obj 318 58 inlet;
#X obj 368 58 inlet;
#X obj 423 60 inlet;
#X obj 477 56 inlet;
#X obj 103 39 inlet;
#X obj 549 51 inlet;
#X obj 217 190 / 100000;
#X obj 217 169 random 50000;
#X obj 156 146 + 11;
#X obj 188 167 + 1;
#X obj 253 232 + 1;
#X obj 278 257 + 1;
#X obj 306 280 + 11;
#X obj 217 210 + 0.2;
#X obj 156 124 random 360;
#X obj 188 147 random 120;
#X obj 253 212 random 2000;
#X obj 279 236 random 4000;
#X obj 306 258 random 1000;
#X obj 152 355 outlet;
#X obj 202 355 outlet;
#X obj 252 355 outlet;
#X obj 302 355 outlet;
#X obj 352 355 outlet;
#X obj 402 355 outlet;
#X obj 213 100 / 50;
#X obj 247 126 / 100;
#X obj 316 191 / 5;
#X obj 344 216 / 2;
#X obj 375 237 / 10;
#X connect 0 0 26 0;
#X connect 1 0 27 0;
#X connect 2 0 28 0;
#X connect 3 0 29 0;
#X connect 4 0 30 0;
#X connect 5 0 15 0;
#X connect 5 0 16 0;
#X connect 5 0 8 0;
#X connect 5 0 17 0;
#X connect 5 0 18 0;
#X connect 5 0 19 0;
#X connect 6 0 8 1;
#X connect 7 0 14 0;
#X connect 8 0 7 0;
#X connect 9 0 20 0;
#X connect 10 0 21 0;
#X connect 11 0 23 0;
#X connect 12 0 24 0;
#X connect 13 0 25 0;
#X connect 14 0 22 0;
#X connect 15 0 9 0;
#X connect 16 0 10 0;
#X connect 17 0 11 0;
#X connect 18 0 12 0;
#X connect 19 0 13 0;
#X connect 26 0 15 1;
#X connect 27 0 16 1;
#X connect 28 0 17 1;
#X connect 29 0 18 1;
#X connect 30 0 19 1;
