#N canvas 589 172 1025 514 10;
#X obj 51 26 inlet;
#X obj 324 25 inlet;
#X obj 324 46 unpack f f;
#X obj 324 67 send \$0-frequency;
#X obj 356 485 outlet~;
#X obj 212 413 *~;
#X obj 343 404 *~;
#X obj 355 369 line~;
#X obj 184 345 line~;
#X msg 152 220 1 10;
#X msg 200 314 0 10;
#X msg 428 337 0 10;
#X obj 391 88 send \$0-multiplier;
#X obj 294 266 noise~;
#X obj 15 254 osc~;
#X obj 33 209 r \$0-multiplier;
#X obj 15 189 r \$0-frequency;
#X obj 15 232 * 1;
#X obj 268 159 t b;
#X obj 298 163 t b;
#X obj 328 164 t b;
#X msg 183 267 0.707107 10;
#X msg 424 306 0.292893 10;
#X obj 362 161 t b;
#X obj 271 132 route sine pink both off;
#X obj 327 320 hip~ 75;
#X msg 422 277 0.65 10;
#X connect 0 0 24 0;
#X connect 1 0 2 0;
#X connect 2 0 3 0;
#X connect 2 1 12 0;
#X connect 5 0 4 0;
#X connect 6 0 4 0;
#X connect 7 0 6 1;
#X connect 8 0 5 1;
#X connect 9 0 8 0;
#X connect 10 0 8 0;
#X connect 11 0 7 0;
#X connect 13 0 25 0;
#X connect 14 0 5 0;
#X connect 15 0 17 1;
#X connect 16 0 17 0;
#X connect 17 0 14 0;
#X connect 18 0 9 0;
#X connect 18 0 11 0;
#X connect 19 0 26 0;
#X connect 19 0 10 0;
#X connect 20 0 21 0;
#X connect 20 0 22 0;
#X connect 21 0 8 0;
#X connect 22 0 7 0;
#X connect 23 0 10 0;
#X connect 23 0 11 0;
#X connect 24 0 18 0;
#X connect 24 1 19 0;
#X connect 24 2 20 0;
#X connect 24 3 23 0;
#X connect 25 0 6 0;
#X connect 26 0 7 0;
