#N canvas 142 273 450 300 10;
#X obj 56 14 inlet;
#X obj 95 14 inlet;
#X obj 164 15 inlet;
#X obj 221 12 inlet;
#X obj 264 18 inlet;
#X obj 113 58 t b;
#X obj 204 102 f;
#X obj 170 238 outlet;
#X obj 56 36 pack 1 50;
#X obj 348 24 inlet;
#X obj 204 125 pack \$1 \$2;
#X obj 401 29 inlet;
#X obj 281 176 delay 10;
#X obj 117 78 delay 10;
#X obj 272 154 t b;
#X obj 302 199 pack 0 50;
#X connect 0 0 8 0;
#X connect 1 0 8 1;
#X connect 2 0 13 1;
#X connect 3 0 6 1;
#X connect 4 0 10 1;
#X connect 5 0 13 0;
#X connect 6 0 10 0;
#X connect 8 0 7 0;
#X connect 8 0 5 0;
#X connect 9 0 12 1;
#X connect 10 0 7 0;
#X connect 10 0 14 0;
#X connect 11 0 15 1;
#X connect 12 0 15 0;
#X connect 13 0 6 0;
#X connect 14 0 12 0;
#X connect 15 0 7 0;
